<svg version="1.1" xmlns="http://www.w3.org/2000/svg" xmlns:xlink="http://www.w3.org/1999/xlink" x="0px" y="0px" viewBox="0 0 256 256" enable-background="new 0 0 256 256" xml:space="preserve">
	<g>
		<path fill="#000000" d="M62.2,18.1v8.1H128h65.8v-8.1V10H128H62.2V18.1z"/>
		<path fill="#000000" d="M73.7,40.4c0,20.8,7.4,45,18.1,59.5c2.2,3,6.6,7.7,9.6,10.5c7.1,6.4,9.1,10,9.1,16.3c0,6.8-1.7,9.8-9.8,17.5c-8.2,7.8-13.4,15.5-17.8,25.8c-5.5,13.1-8.3,26-9,41.2l-0.4,9.7h54.3h54.4v-6.3c-0.1-16.8-4.5-35.3-11.9-50c-4.6-9-9-14.9-15.9-21c-6.8-6.2-9.1-10.3-9-16.9c0.1-6.6,1.4-8.8,10.3-17.7c9.1-9.1,13.5-15.6,18.1-27c5.2-12.7,8.4-28.8,8.4-41.6v-5.4H128H73.7V40.4z"/>
		<path fill="#000000" d="M62.2,237.9v8.1H128h65.8v-8.1v-8.1H128H62.2V237.9z"/>
	</g>
</svg>